<svg width="14" height="14" viewBox="0 0 14 14" fill="none" xmlns="http://www.w3.org/2000/svg">
<path d="M0.292919 1.70713L5.24266 6.65688L0.292919 11.6066C-0.0976396 11.9972 -0.0976396 12.6303 0.292919 13.0208C0.683478 13.4114 1.31657 13.4114 1.70713 13.0208L6.65688 8.07109L11.6066 13.0208C11.9971 13.4114 12.6302 13.4114 13.0208 13.0208C13.4114 12.6303 13.4114 11.9972 13.0208 11.6066L8.07109 6.65688L13.0208 1.70713C13.4114 1.31657 13.4114 0.683478 13.0208 0.292919C12.6302 -0.0976396 11.9971 -0.0976396 11.6066 0.292919L6.65688 5.24266L1.70713 0.292919C1.31657 -0.0976396 0.683478 -0.0976396 0.292919 0.292919C-0.0976396 0.683478 -0.0976396 1.31657 0.292919 1.70713Z" fill="#222222"/>
</svg>
