<?xml version="1.0" encoding="UTF-8"?>
<svg id="Layer_2" data-name="Layer 2" xmlns="http://www.w3.org/2000/svg" viewBox="0 0 200 89.103">
  <path d="M132.574,89.103h-65.033c-5.559,0-10.081-4.522-10.081-10.081v-3.823c0-4.044-1.601-7.82-4.509-10.632-2.906-2.811-6.737-4.283-10.79-4.149-3.841.128-7.433,1.754-10.114,4.578-2.686,2.829-4.165,6.538-4.165,10.443,0,2.136-1.032,4.159-2.761,5.412-1.728,1.253-3.971,1.604-5.999.94-3.04-.995-6.073-2.562-9.014-4.657-2.842-2.024-4.836-3.921-6.666-6.341-.183-.241-.339-.501-.468-.775C-1.214,61.089.191,42.038.365,39.896c.342-4.213,1.054-12.98,7.498-22.551,3.631-5.392,8.032-9.586,13.456-12.823.425-.254.891-.433,1.377-.53C30.854,2.368,43.499.192,59.051.042c13.519-.13,26.289-.253,40.676,4.375,14.945,4.807,28.918,14.004,40.519,26.649h14.404c6.808,0,13.455,1.016,19.22,2.939,7.133,2.379,12.841,6.063,16.966,10.951,5.571,6.602,8.738,15.912,9.157,26.923.11,2.897-1.02,5.701-3.101,7.693-1.441,1.379-3.085,2.648-5.176,3.993-3.154,2.03-6.649,3.577-10.387,4.598-2.18.595-4.461.15-6.259-1.223-1.804-1.377-2.838-3.468-2.838-5.736v-6.006c0-3.971-1.552-7.699-4.371-10.496-2.791-2.771-6.487-4.293-10.418-4.293-.038,0-.075,0-.113,0-8.092.06-14.676,6.802-14.676,15.029v3.583c0,5.559-4.522,10.081-10.081,10.081ZM42.682,51.73c6.124,0,11.885,2.325,16.303,6.598,4.614,4.462,7.154,10.454,7.154,16.871v3.823c0,.773.629,1.401,1.401,1.401h65.033c.773,0,1.401-.629,1.401-1.401v-3.583c0-12.977,10.448-23.612,23.291-23.708.06,0,.12,0,.179,0,6.237,0,12.101,2.415,16.531,6.812,4.472,4.44,6.936,10.355,6.936,16.656v4.016c2.179-.75,4.226-1.738,6.107-2.948,1.612-1.037,2.842-1.98,3.872-2.965.289-.276.445-.675.429-1.093-.241-6.317-1.671-15.201-7.117-21.656-2.742-3.249-11.111-10.808-29.552-10.808h-16.335c-1.243,0-2.427-.533-3.25-1.464-10.823-12.235-23.961-21.088-37.995-25.602-13.051-4.198-24.582-4.087-37.935-3.958-14.355.138-26.161,2.098-33.992,3.635-4.065,2.537-7.281,5.679-10.08,9.837-5.177,7.688-5.743,14.66-6.047,18.405-.713,8.788-.366,20.468,1.644,25.342,1.02,1.292,2.239,2.526,4.484,4.125,1.407,1.003,2.823,1.839,4.231,2.501.608-5.068,2.82-9.798,6.379-13.546,4.26-4.487,9.985-7.071,16.118-7.276.271-.009.541-.014.811-.014Z"/>
</svg>