<?xml version="1.0" encoding="UTF-8"?>
<svg id="Layer_2" data-name="Layer 2" xmlns="http://www.w3.org/2000/svg" viewBox="0 0 352.14 318.085">
  <path d="M217.898,112.375h-82.018c-7.01,0-12.714-5.703-12.714-12.714v-4.822c0-5.1-2.02-9.862-5.687-13.409-3.665-3.545-8.497-5.402-13.608-5.232-4.844.162-9.374,2.212-12.755,5.773-3.387,3.568-5.253,8.245-5.253,13.17,0,2.693-1.302,5.245-3.483,6.826-2.179,1.58-5.008,2.023-7.566,1.186-3.834-1.255-7.659-3.231-11.368-5.874-3.584-2.553-6.099-4.945-8.407-7.997-.23-.304-.428-.632-.59-.978-5.281-11.262-3.51-35.287-3.29-37.99.431-5.313,1.329-16.37,9.457-28.44,4.579-6.8,10.13-12.09,16.97-16.172.536-.32,1.124-.546,1.736-.668C89.611,2.987,105.559.242,125.172.053c17.05-.164,33.155-.319,51.3,5.518,18.849,6.063,36.47,17.661,51.102,33.61h18.166c8.587,0,16.969,1.282,24.24,3.706,8.996,3,16.195,7.646,21.397,13.811,7.026,8.326,11.02,20.068,11.549,33.954.139,3.654-1.286,7.19-3.911,9.703-1.817,1.739-3.891,3.339-6.528,5.036-3.978,2.56-8.386,4.511-13.099,5.799-2.749.751-5.626.189-7.893-1.543-2.275-1.736-3.579-4.373-3.579-7.234v-7.575c0-5.008-1.958-9.71-5.512-13.238-3.52-3.494-8.182-5.414-13.139-5.414-.048,0-.095,0-.143,0-10.206.076-18.509,8.578-18.509,18.954v4.519c0,7.01-5.703,12.714-12.714,12.714ZM104.529,65.241c7.723,0,14.99,2.933,20.561,8.321,5.819,5.628,9.023,13.184,9.023,21.277v4.822c0,.975.793,1.767,1.767,1.767h82.018c.974,0,1.767-.793,1.767-1.767v-4.519c0-16.367,13.177-29.78,29.374-29.9.075,0,.151,0,.226,0,7.866,0,15.261,3.046,20.848,8.591,5.641,5.599,8.747,13.059,8.747,21.007v5.065c2.748-.946,5.33-2.192,7.702-3.718,2.033-1.308,3.585-2.497,4.883-3.739.364-.349.562-.851.542-1.379-.303-7.966-2.107-19.171-8.976-27.312-3.458-4.098-14.013-13.63-37.271-13.63h-20.602c-1.568,0-3.061-.672-4.099-1.847-13.649-15.43-30.219-26.596-47.919-32.289-16.459-5.294-31.003-5.155-47.843-4.992-18.104.174-32.994,2.646-42.869,4.584-5.126,3.2-9.182,7.162-12.713,12.406-6.529,9.696-7.243,18.489-7.626,23.212-.9,11.084-.462,25.814,2.073,31.961,1.286,1.629,2.823,3.185,5.655,5.202,1.775,1.264,3.56,2.319,5.336,3.154.767-6.392,3.556-12.356,8.045-17.084,5.373-5.659,12.592-8.918,20.328-9.177.341-.011.683-.017,1.022-.017Z"/>
  <g>
    <path d="M37.037,228.59c-5.195,0-10.053-.928-14.571-2.782-4.521-1.854-8.468-4.486-11.84-7.894-3.374-3.405-5.988-7.438-7.843-12.093-1.856-4.654-2.783-9.747-2.783-15.28,0-5.328.894-10.271,2.682-14.824,1.787-4.554,4.317-8.551,7.59-11.992,3.271-3.44,7.134-6.104,11.587-7.994,4.452-1.888,9.343-2.833,14.673-2.833,6.206,0,11.738,1.147,16.596,3.44,4.857,2.294,8.921,5.448,12.194,9.462,3.271,4.015,5.616,8.585,7.032,13.712h-13.661c-.877-3.036-2.312-5.769-4.301-8.197-1.99-2.429-4.503-4.352-7.538-5.768-3.036-1.417-6.578-2.125-10.626-2.125-4.654,0-8.804,1.112-12.446,3.339-3.644,2.227-6.512,5.381-8.602,9.462-2.092,4.082-3.138,8.955-3.138,14.622,0,5.263,1.028,9.985,3.087,14.167,2.057,4.184,4.991,7.488,8.804,9.917,3.811,2.429,8.349,3.644,13.61,3.644,4.385,0,8.18-.843,11.385-2.53,3.203-1.686,5.834-4.013,7.893-6.982,2.058-2.968,3.391-6.441,3.997-10.423h-24.488v-9.411h37.037c.134,5.803-.643,11.116-2.328,15.938-1.687,4.824-4.115,8.99-7.286,12.497-3.171,3.509-7.017,6.208-11.535,8.096-4.521,1.888-9.581,2.833-15.18,2.833Z"/>
    <path d="M105.322,228.085c-5.196,0-9.75-1.18-13.661-3.542-3.913-2.36-6.967-5.666-9.158-9.917-2.193-4.25-3.289-9.174-3.289-14.773,0-5.263,1.113-9.968,3.34-14.117,2.227-4.148,5.277-7.42,9.158-9.815,3.878-2.394,8.313-3.593,13.307-3.593,4.048,0,7.706.759,10.979,2.277,3.271,1.518,6.037,3.66,8.298,6.426,2.26,2.767,3.896,6.005,4.908,9.715,1.012,3.711,1.28,7.758.81,12.143h-44.425v-7.083h32.889c-.136-4.79-1.435-8.551-3.896-11.283-2.463-2.732-5.717-4.099-9.765-4.099-3.036,0-5.634.776-7.792,2.327-2.16,1.553-3.846,3.779-5.06,6.679-1.215,2.902-1.821,6.376-1.821,10.424,0,4.184.589,7.741,1.771,10.676,1.18,2.935,2.884,5.178,5.11,6.729,2.227,1.553,4.924,2.327,8.096,2.327,3.709,0,6.795-.944,9.259-2.833,2.462-1.889,4.099-4.52,4.908-7.894h10.727c-1.351,6.005-4.2,10.711-8.551,14.116-4.352,3.407-9.732,5.11-16.141,5.11Z"/>
    <path d="M147.722,196.918v30.155h-10.727v-53.733h9.917v8.804c1.888-2.968,4.301-5.346,7.235-7.135,2.935-1.786,6.224-2.682,9.866-2.682,5.531,0,9.968,1.738,13.307,5.212,3.34,3.476,5.01,8.416,5.01,14.825v34.709h-10.828v-31.066c0-4.519-.945-7.994-2.833-10.423-1.89-2.429-4.69-3.644-8.399-3.644-2.294,0-4.386.607-6.274,1.822-1.889,1.214-3.407,2.918-4.554,5.11-1.147,2.192-1.72,4.874-1.72,8.045Z"/>
    <path d="M215.521,228.085c-5.196,0-9.75-1.18-13.661-3.542-3.913-2.36-6.967-5.666-9.158-9.917-2.193-4.25-3.289-9.174-3.289-14.773,0-5.263,1.113-9.968,3.34-14.117,2.227-4.148,5.277-7.42,9.158-9.815,3.878-2.394,8.313-3.593,13.307-3.593,4.048,0,7.706.759,10.979,2.277,3.271,1.518,6.037,3.66,8.298,6.426,2.26,2.767,3.896,6.005,4.908,9.715,1.012,3.711,1.28,7.758.81,12.143h-44.425v-7.083h32.889c-.136-4.79-1.435-8.551-3.896-11.283-2.463-2.732-5.717-4.099-9.765-4.099-3.036,0-5.634.776-7.792,2.327-2.16,1.553-3.846,3.779-5.06,6.679-1.215,2.902-1.821,6.376-1.821,10.424,0,4.184.589,7.741,1.771,10.676,1.18,2.935,2.884,5.178,5.11,6.729,2.227,1.553,4.924,2.327,8.096,2.327,3.709,0,6.795-.944,9.259-2.833,2.462-1.889,4.099-4.52,4.908-7.894h10.727c-1.351,6.005-4.2,10.711-8.551,14.116-4.352,3.407-9.732,5.11-16.141,5.11Z"/>
    <path d="M258.933,199.751v27.322h-10.727v-53.733h9.917v11.232c1.956-3.644,4.822-6.543,8.602-8.703,3.777-2.158,7.825-3.238,12.144-3.238v11.334c-3.846-.269-7.271.118-10.271,1.164-3.003,1.046-5.363,2.767-7.084,5.16-1.72,2.396-2.58,5.55-2.58,9.462Z"/>
    <path d="M297.709,160.892c0,2.023-.709,3.693-2.125,5.009-1.417,1.315-3.273,1.974-5.566,1.974-2.226,0-4.064-.658-5.515-1.974-1.451-1.315-2.176-2.985-2.176-5.009s.725-3.693,2.176-5.009c1.45-1.315,3.289-1.974,5.515-1.974,2.293,0,4.149.658,5.566,1.974,1.416,1.315,2.125,2.985,2.125,5.009ZM295.482,227.073h-10.727v-53.733h10.727v53.733Z"/>
    <path d="M327.043,228.085c-4.925,0-9.276-1.18-13.054-3.542-3.779-2.36-6.747-5.649-8.905-9.866-2.159-4.215-3.238-9.057-3.238-14.521,0-5.396,1.096-10.186,3.289-14.369,2.191-4.182,5.177-7.471,8.956-9.866,3.777-2.394,8.095-3.593,12.952-3.593,4.453,0,8.45.946,11.992,2.834,3.541,1.89,6.459,4.554,8.753,7.994,2.293,3.44,3.744,7.488,4.352,12.144h-11.436c-.54-4.183-2.023-7.454-4.452-9.816-2.429-2.36-5.465-3.542-9.107-3.542-2.834,0-5.312.76-7.438,2.277s-3.779,3.627-4.959,6.324c-1.181,2.699-1.771,5.904-1.771,9.613s.572,6.967,1.72,9.766c1.146,2.8,2.799,4.942,4.959,6.426,2.158,1.484,4.654,2.227,7.488,2.227,3.709,0,6.763-1.18,9.158-3.542,2.394-2.36,3.896-5.667,4.503-9.917h11.334c-.607,4.723-2.024,8.804-4.251,12.244-2.226,3.44-5.109,6.089-8.651,7.944-3.542,1.854-7.607,2.782-12.194,2.782Z"/>
    <path d="M50.095,317.073l-22.363-54.442v54.442h-10.828v-72.657h14.471l23.78,58.187,23.882-58.187h14.369v72.657h-10.727v-54.645l-22.565,54.645h-10.019Z"/>
    <path d="M127.607,318.085c-3.845,0-7.371-.692-10.574-2.074-3.205-1.382-5.988-3.34-8.349-5.869-2.362-2.53-4.217-5.498-5.565-8.905-1.351-3.405-2.024-7.1-2.024-11.081s.674-7.655,2.024-11.029c1.349-3.373,3.203-6.308,5.565-8.805,2.36-2.494,5.144-4.435,8.349-5.818,3.203-1.382,6.729-2.074,10.574-2.074s7.37.692,10.575,2.074c3.203,1.384,6.004,3.324,8.399,5.818,2.394,2.497,4.25,5.432,5.565,8.805,1.315,3.374,1.973,7.05,1.973,11.029s-.657,7.676-1.973,11.081c-1.315,3.407-3.172,6.375-5.565,8.905-2.396,2.529-5.196,4.487-8.399,5.869-3.205,1.382-6.729,2.074-10.575,2.074ZM127.607,308.573c2.9,0,5.498-.742,7.792-2.227,2.293-1.483,4.114-3.593,5.465-6.324,1.349-2.732,2.023-6.021,2.023-9.867,0-3.777-.675-7.032-2.023-9.765-1.351-2.732-3.172-4.822-5.465-6.274-2.294-1.449-4.892-2.176-7.792-2.176-2.833,0-5.413.727-7.741,2.176-2.327,1.452-4.166,3.542-5.515,6.274-1.351,2.732-2.024,5.987-2.024,9.765,0,3.846.674,7.135,2.024,9.867,1.349,2.731,3.188,4.841,5.515,6.324,2.328,1.484,4.908,2.227,7.741,2.227Z"/>
    <path d="M192.878,306.548v9.513c-1.485.743-2.97,1.265-4.453,1.568-1.484.304-3.104.455-4.857.455-3.374,0-6.324-.624-8.854-1.872-2.529-1.247-4.521-3.17-5.97-5.768-1.452-2.597-2.176-5.853-2.176-9.766v-28.03h-11.638v-9.31h11.638v-15.888h10.827v15.888h15.989v9.31h-15.989v25.602c0,3.577.792,6.106,2.378,7.59,1.585,1.484,3.728,2.227,6.426,2.227,1.281,0,2.462-.117,3.542-.354,1.078-.235,2.125-.623,3.138-1.164Z"/>
    <path d="M224.146,318.085c-3.845,0-7.371-.692-10.574-2.074-3.205-1.382-5.988-3.34-8.349-5.869-2.362-2.53-4.217-5.498-5.565-8.905-1.351-3.405-2.024-7.1-2.024-11.081s.674-7.655,2.024-11.029c1.349-3.373,3.203-6.308,5.565-8.805,2.36-2.494,5.144-4.435,8.349-5.818,3.203-1.382,6.729-2.074,10.574-2.074s7.37.692,10.575,2.074c3.203,1.384,6.004,3.324,8.399,5.818,2.394,2.497,4.25,5.432,5.565,8.805,1.315,3.374,1.973,7.05,1.973,11.029s-.657,7.676-1.973,11.081c-1.315,3.407-3.172,6.375-5.565,8.905-2.396,2.529-5.196,4.487-8.399,5.869-3.205,1.382-6.729,2.074-10.575,2.074ZM224.146,308.573c2.9,0,5.498-.742,7.792-2.227,2.293-1.483,4.114-3.593,5.465-6.324,1.349-2.732,2.023-6.021,2.023-9.867,0-3.777-.675-7.032-2.023-9.765-1.351-2.732-3.172-4.822-5.465-6.274-2.294-1.449-4.892-2.176-7.792-2.176-2.833,0-5.413.727-7.741,2.176-2.327,1.452-4.166,3.542-5.515,6.274-1.351,2.732-2.024,5.987-2.024,9.765,0,3.846.674,7.135,2.024,9.867,1.349,2.731,3.188,4.841,5.515,6.324,2.328,1.484,4.908,2.227,7.741,2.227Z"/>
    <path d="M269.178,289.751v27.322h-10.727v-53.733h9.917v11.232c1.956-3.644,4.822-6.543,8.602-8.703,3.777-2.158,7.825-3.238,12.144-3.238v11.334c-3.846-.269-7.271.118-10.271,1.164-3.003,1.046-5.363,2.767-7.084,5.16-1.72,2.396-2.58,5.55-2.58,9.462Z"/>
    <path d="M338.575,300.882c0,5.33-1.974,9.53-5.92,12.599-3.946,3.071-9.529,4.604-16.748,4.604-7.151,0-12.768-1.67-16.849-5.009-4.082-3.34-6.393-7.876-6.932-13.61h10.322c.202,3.238,1.533,5.803,3.997,7.69,2.462,1.89,5.683,2.833,9.664,2.833,3.507,0,6.307-.606,8.398-1.821,2.091-1.214,3.138-3.035,3.138-5.464,0-2.158-.693-3.777-2.075-4.857-1.383-1.078-3.693-1.956-6.932-2.631l-8.905-1.619c-4.856-.944-8.651-2.682-11.384-5.212-2.732-2.529-4.099-5.818-4.099-9.866,0-3.17.876-5.971,2.631-8.399,1.754-2.429,4.183-4.334,7.286-5.717,3.103-1.383,6.745-2.075,10.929-2.075,4.385,0,8.213.726,11.486,2.176,3.271,1.452,5.885,3.542,7.842,6.274,1.956,2.732,3.069,5.954,3.34,9.664h-10.322c-.271-3.103-1.502-5.549-3.693-7.337-2.193-1.786-5.044-2.682-8.551-2.682-3.172,0-5.718.625-7.64,1.872-1.923,1.249-2.885,2.985-2.885,5.212,0,2.092.709,3.678,2.125,4.756,1.417,1.08,3.677,1.923,6.78,2.529l9.31,1.721c5.329,1.012,9.275,2.699,11.84,5.06,2.563,2.362,3.846,5.465,3.846,9.31Z"/>
  </g>
</svg>